<svg xmlns="http://www.w3.org/2000/svg" viewBox="0 0 32 32" width="32" height="32">
  <!-- Neural network nodes -->
  <circle cx="8" cy="8" r="2" fill="#3b82f6"/>
  <circle cx="8" cy="16" r="2" fill="#3b82f6"/>
  <circle cx="8" cy="24" r="2" fill="#3b82f6"/>
  
  <circle cx="16" cy="6" r="2" fill="#7c3aed"/>
  <circle cx="16" cy="12" r="2" fill="#7c3aed"/>
  <circle cx="16" cy="20" r="2" fill="#7c3aed"/>
  <circle cx="16" cy="26" r="2" fill="#7c3aed"/>
  
  <circle cx="24" cy="12" r="2" fill="#059669"/>
  <circle cx="24" cy="20" r="2" fill="#059669"/>
  
  <!-- Neural network connections -->
  <line x1="10" y1="8" x2="14" y2="6" stroke="#6b7280" stroke-width="1" opacity="0.6"/>
  <line x1="10" y1="8" x2="14" y2="12" stroke="#6b7280" stroke-width="1" opacity="0.6"/>
  <line x1="10" y1="16" x2="14" y2="12" stroke="#6b7280" stroke-width="1" opacity="0.6"/>
  <line x1="10" y1="16" x2="14" y2="20" stroke="#6b7280" stroke-width="1" opacity="0.6"/>
  <line x1="10" y1="24" x2="14" y2="20" stroke="#6b7280" stroke-width="1" opacity="0.6"/>
  <line x1="10" y1="24" x2="14" y2="26" stroke="#6b7280" stroke-width="1" opacity="0.6"/>
  
  <line x1="18" y1="6" x2="22" y2="12" stroke="#6b7280" stroke-width="1" opacity="0.6"/>
  <line x1="18" y1="12" x2="22" y2="12" stroke="#6b7280" stroke-width="1" opacity="0.6"/>
  <line x1="18" y1="20" x2="22" y2="20" stroke="#6b7280" stroke-width="1" opacity="0.6"/>
  <line x1="18" y1="26" x2="22" y2="20" stroke="#6b7280" stroke-width="1" opacity="0.6"/>
</svg> 